<svg width="740" height="356" viewBox="0 0 740 356" fill="none" xmlns="http://www.w3.org/2000/svg">
<g opacity="0.1" clip-path="url(#clip0_138_60)">
<path d="M359.016 281.066C365.058 275.046 374.857 275.046 380.898 281.066L455.621 355.884H483.198L394.687 267.26C388.096 260.661 379.309 257.015 369.972 257.015C361.936 257.015 354.102 259.793 347.888 264.858C346.991 265.611 346.095 266.392 345.257 267.26L256.746 355.884H284.323L359.045 281.066H359.016Z" fill="#E2471F"/>
<path d="M359.016 24.0517C361.935 21.1285 365.809 19.5076 369.942 19.5076C374.076 19.5076 377.949 21.1285 380.869 24.0517L712.308 355.913H739.884L394.657 10.2459C388.066 3.64683 379.308 0 369.942 0C360.577 0 351.818 3.64683 345.227 10.2459L0 355.913H27.5766L359.016 24.0517Z" fill="#E2471F"/>
<path d="M369.942 128.508C360.605 128.508 351.818 132.155 345.227 138.754L128.344 355.914H155.92L359.016 152.56C365.057 146.51 374.856 146.539 380.898 152.56L583.993 355.914H611.57L394.657 138.754C388.066 132.155 379.279 128.508 369.942 128.508Z" fill="#E2471F"/>
</g>
<defs>
<clipPath id="clip0_138_60">
<rect width="740" height="356" fill="white"/>
</clipPath>
</defs>
</svg>
