<svg width="108" height="40" viewBox="0 0 108 40" fill="none" xmlns="http://www.w3.org/2000/svg">
<g clip-path="url(#clip0_138_114)">
<path d="M19.2433 38.81C18.7788 38.81 18.3416 38.6281 18.0137 38.2988L0.630175 20.8432C0.302292 20.514 0.121094 20.075 0.121094 19.6086C0.121094 19.1421 0.302292 18.7032 0.630175 18.3739L18.8996 0.0273438H19.4087L19.5855 0.204961V0.716152L1.31614 19.0627C1.17089 19.2086 1.09036 19.4021 1.09036 19.6086C1.09036 19.8151 1.17089 20.0086 1.31614 20.1544L18.6997 37.61C18.8449 37.7559 19.0376 37.8367 19.2433 37.8367C19.4489 37.8367 19.6416 37.7559 19.7869 37.61L37.1704 20.1544C37.471 19.8526 37.4695 19.3631 37.1704 19.0613L22.9794 4.8129C22.8342 4.66706 22.6415 4.58763 22.4358 4.58763C22.2302 4.58763 22.0375 4.6685 21.8922 4.8129L7.70123 19.0627C7.40211 19.3645 7.40067 19.8541 7.70123 20.1559L18.6982 31.1985C18.9988 31.5003 19.4863 31.5003 19.7869 31.1985L30.7839 20.1559C30.8011 20.1385 30.817 20.1212 30.8313 20.1039C30.8357 20.0981 30.84 20.0923 30.8443 20.0866C30.8572 20.0707 30.8702 20.0533 30.8817 20.0346L30.8903 20.0216C31.0499 19.7746 31.0499 19.444 30.8831 19.1869V19.184C30.8687 19.1667 30.8558 19.1479 30.8429 19.132L30.8285 19.1118C30.8213 19.1032 30.8026 19.0829 30.7839 19.0642L22.9794 11.2273C22.8342 11.0815 22.6415 11.0006 22.4358 11.0006C22.2302 11.0006 22.0375 11.0815 21.8922 11.2273L14.0878 19.0642C13.7886 19.366 13.7886 19.8555 14.0878 20.1573L18.6997 24.7884C18.8449 24.9342 19.0376 25.0136 19.2433 25.0136C19.4489 25.0136 19.6431 24.9342 19.7869 24.7884L24.3988 20.1573C24.6979 19.8555 24.6979 19.366 24.3988 19.0642L22.9794 17.6389C22.8342 17.493 22.6415 17.4122 22.4358 17.4122C22.2302 17.4122 22.0375 17.493 21.8922 17.6389L19.5855 19.9537H19.0765L18.8996 19.7761V19.2649L21.2063 16.9486C21.8836 16.2685 22.988 16.2671 23.6654 16.9486L25.0848 18.3739C25.4127 18.7032 25.5939 19.1421 25.5939 19.6086C25.5939 20.075 25.4127 20.514 25.0848 20.8432L20.4728 25.4743C20.145 25.8035 19.7078 25.9855 19.2433 25.9855C18.7788 25.9855 18.3416 25.8035 18.0137 25.4743L13.4018 20.8432C13.3586 20.7999 13.3198 20.7566 13.2824 20.7118C13.0308 20.4014 12.8927 20.01 12.8927 19.6086C12.8927 19.1421 13.0739 18.7032 13.4018 18.3739L21.2063 10.5371C21.5341 10.2079 21.9713 10.0259 22.4358 10.0259C22.9003 10.0259 23.3375 10.2079 23.6654 10.5371L31.4699 18.3739C31.7977 18.7032 31.9789 19.1421 31.9789 19.6086C31.9789 20.01 31.8409 20.4014 31.5892 20.7118C31.5518 20.758 31.5116 20.8014 31.4699 20.8447L20.4728 31.8873C20.145 32.2165 19.7078 32.3985 19.2433 32.3985C18.7788 32.3985 18.3416 32.2165 18.0137 31.8873L7.01526 20.8432C6.68738 20.514 6.50618 20.075 6.50618 19.6086C6.50618 19.1421 6.68738 18.7032 7.01526 18.3739L21.2063 4.12409C21.885 3.44251 22.988 3.44395 23.6654 4.12409L37.8564 18.3739C37.8981 18.4158 37.9369 18.4591 37.9743 18.5053L37.9959 18.5328C38.0218 18.566 38.052 18.605 38.0793 18.6468L38.085 18.6569C38.2677 18.9356 38.3669 19.2663 38.3669 19.6086C38.3669 19.9508 38.2691 20.2801 38.0836 20.5645L38.075 20.5775C38.0534 20.6107 38.0246 20.6497 37.9944 20.6887L37.9772 20.7104C37.9384 20.758 37.8995 20.8014 37.8578 20.8432L20.4743 38.2988C20.1464 38.6281 19.7092 38.81 19.2447 38.81H19.2433Z" fill="#6E0012"/>
<path d="M49.585 38.4252V38.7718H46.7793V34.5234H47.1446V38.4252H49.5836H49.585Z" fill="#6E0012"/>
<path d="M52.9547 38.4694V38.7712C52.9432 38.7828 52.8555 38.7943 52.821 38.7943C52.4442 38.7943 52.2889 38.6268 52.2774 38.2124C52.0444 38.5705 51.5684 38.8275 51.0248 38.8275C50.382 38.8275 49.9707 38.4694 49.9707 37.9106C49.9707 37.1163 50.7142 36.9835 51.3455 36.8492C51.833 36.7481 52.2443 36.6817 52.2443 36.3351C52.2443 35.9438 51.9006 35.6752 51.3901 35.6752C50.9472 35.6752 50.5804 35.8658 50.3029 36.234L50.0369 35.9886C50.3691 35.5857 50.858 35.3633 51.4002 35.3633C52.1436 35.3633 52.5981 35.7662 52.5981 36.4362V38.2138C52.5981 38.4044 52.6642 38.4709 52.831 38.4709H52.9533L52.9547 38.4694ZM52.2673 37.4528V36.8377C52.0559 37.0052 51.7237 37.0831 51.38 37.1395C50.8594 37.2405 50.3374 37.3402 50.3374 37.9106C50.3374 38.2788 50.592 38.5026 51.0363 38.5026C51.7237 38.5026 52.2673 38.0449 52.2673 37.4514V37.4528Z" fill="#6E0012"/>
<path d="M56.6353 36.7486V38.7717H56.2801V36.8266C56.2801 36.067 55.8804 35.6757 55.2821 35.6757C54.6839 35.6757 54.1618 36.1897 54.1618 36.8049V38.7717H53.8066V35.4186H54.1058L54.1503 36.0107C54.3833 35.6193 54.8377 35.3623 55.3698 35.3623C56.1133 35.3623 56.6339 35.8547 56.6339 36.7486H56.6353Z" fill="#6E0012"/>
<path d="M60.5817 34.3008V38.7715H60.2826L60.238 38.1679C59.972 38.5809 59.5506 38.8279 59.0401 38.8279C58.1413 38.8279 57.5215 38.1131 57.5215 37.095C57.5215 36.077 58.1427 35.3622 59.0401 35.3622C59.5506 35.3622 59.9605 35.5975 60.2265 35.9773V34.3008H60.5817ZM60.2596 37.095C60.2596 36.2459 59.7937 35.6755 59.0732 35.6755C58.3527 35.6755 57.8868 36.2459 57.8868 37.095C57.8868 37.9441 58.3642 38.5145 59.0732 38.5145C59.7822 38.5145 60.2596 37.9441 60.2596 37.095Z" fill="#6E0012"/>
<path d="M61.3809 38.2788L61.6253 38.0333C61.8914 38.3351 62.2682 38.5026 62.6895 38.5026C63.2446 38.5026 63.5984 38.2672 63.5984 37.9206C63.5984 37.6073 63.3654 37.4181 62.6665 37.2159C61.8123 36.9589 61.5462 36.7019 61.5462 36.2326C61.5462 35.73 62.0453 35.3604 62.7111 35.3604C63.1324 35.3604 63.5423 35.5062 63.8529 35.7849L63.62 36.065C63.3654 35.808 63.0217 35.6853 62.6996 35.6853C62.2221 35.6853 61.8899 35.9091 61.8899 36.2224C61.8899 36.5358 62.0568 36.6585 62.7887 36.8824C63.6315 37.1394 63.9421 37.408 63.9421 37.8658C63.9421 38.4362 63.4316 38.8275 62.6895 38.8275C62.1905 38.8275 61.703 38.6152 61.3809 38.2802V38.2788Z" fill="#6E0012"/>
<path d="M64.418 37.0952C64.418 36.0887 65.0838 35.3623 66.0142 35.3623C66.7347 35.3623 67.2553 35.7536 67.4451 36.3789L67.1129 36.4901C66.9576 36.0092 66.5578 35.6742 66.0157 35.6742C65.2952 35.6742 64.7847 36.2547 64.7847 37.0937C64.7847 37.9327 65.2952 38.5132 66.0157 38.5132C66.5478 38.5132 66.9691 38.1782 67.1244 37.6973L67.4466 37.8085C67.2582 38.4338 66.7261 38.8251 66.0157 38.8251C65.0737 38.8251 64.4194 38.1103 64.4194 37.0923L64.418 37.0952Z" fill="#6E0012"/>
<path d="M70.9039 38.4694V38.7712C70.8924 38.7828 70.8047 38.7943 70.7702 38.7943C70.3934 38.7943 70.2381 38.6268 70.2266 38.2124C69.9936 38.5705 69.5176 38.8275 68.974 38.8275C68.3312 38.8275 67.9199 38.4694 67.9199 37.9106C67.9199 37.1163 68.6634 36.9835 69.2947 36.8492C69.7822 36.7481 70.1935 36.6817 70.1935 36.3351C70.1935 35.9438 69.8498 35.6752 69.3393 35.6752C68.8964 35.6752 68.5297 35.8658 68.2521 36.234L67.9861 35.9886C68.3183 35.5857 68.8072 35.3633 69.3494 35.3633C70.0929 35.3633 70.5473 35.7662 70.5473 36.4362V38.2138C70.5473 38.4044 70.6135 38.4709 70.7803 38.4709H70.9025L70.9039 38.4694ZM70.2165 37.4528V36.8377C70.0051 37.0052 69.6729 37.0831 69.3292 37.1395C68.8087 37.2405 68.2866 37.3402 68.2866 37.9106C68.2866 38.2788 68.5412 38.5026 68.9855 38.5026C69.6729 38.5026 70.2165 38.0449 70.2165 37.4514V37.4528Z" fill="#6E0012"/>
<path d="M74.8181 37.0952C74.8181 38.1118 74.1968 38.828 73.2994 38.828C72.7889 38.828 72.3791 38.5941 72.113 38.2128V39.8894H71.7578V35.4186H72.0569L72.1015 36.0222C72.3676 35.6092 72.7889 35.3623 73.2994 35.3623C74.1982 35.3623 74.8181 36.0771 74.8181 37.0952ZM74.4528 37.0952C74.4528 36.2461 73.9753 35.6757 73.2664 35.6757C72.5574 35.6757 72.0799 36.2461 72.0799 37.0952C72.0799 37.9443 72.5459 38.5146 73.2664 38.5146C73.9868 38.5146 74.4528 37.9443 74.4528 37.0952Z" fill="#6E0012"/>
<path d="M77.1698 38.5031C77.6242 38.5031 78.0456 38.3024 78.2786 37.989L78.523 38.2128C78.2786 38.5146 77.7796 38.828 77.1698 38.828C76.0941 38.828 75.4844 38.0901 75.4844 37.0952C75.4844 36.1002 76.1718 35.3623 77.0806 35.3623C77.9895 35.3623 78.6108 36.0439 78.6108 37.0952V37.2295H75.8496C75.9043 38.0237 76.3932 38.5045 77.1684 38.5045L77.1698 38.5031ZM75.8612 36.9262H78.2556C78.1995 36.1551 77.7565 35.6742 77.0806 35.6742C76.4047 35.6742 75.9158 36.1666 75.8612 36.9262Z" fill="#6E0012"/>
<path d="M80.8828 38.2788L81.1273 38.0333C81.3933 38.3351 81.7701 38.5026 82.1915 38.5026C82.7466 38.5026 83.1003 38.2672 83.1003 37.9206C83.1003 37.6073 82.8674 37.4181 82.1685 37.2159C81.3142 36.9589 81.0482 36.7019 81.0482 36.2326C81.0482 35.73 81.5472 35.3604 82.213 35.3604C82.6344 35.3604 83.0443 35.5062 83.3549 35.7849L83.1219 36.065C82.8674 35.808 82.5237 35.6853 82.2015 35.6853C81.7241 35.6853 81.3919 35.9091 81.3919 36.2224C81.3919 36.5358 81.5587 36.6585 82.2907 36.8824C83.1334 37.1394 83.444 37.408 83.444 37.8658C83.444 38.4362 82.9335 38.8275 82.1915 38.8275C81.6925 38.8275 81.2049 38.6152 80.8828 38.2802V38.2788Z" fill="#6E0012"/>
<path d="M83.9199 37.0952C83.9199 36.0786 84.5742 35.3623 85.5277 35.3623C86.4811 35.3623 87.1355 36.0554 87.1355 37.0952C87.1355 38.1349 86.4811 38.828 85.5277 38.828C84.5742 38.828 83.9199 38.1349 83.9199 37.0952ZM86.7702 37.0952C86.7702 36.2345 86.2827 35.6757 85.5277 35.6757C84.7727 35.6757 84.2852 36.2461 84.2852 37.0952C84.2852 37.9443 84.7842 38.5146 85.5277 38.5146C86.2712 38.5146 86.7702 37.9443 86.7702 37.0952Z" fill="#6E0012"/>
<path d="M88.0781 34.3008H88.4333V38.7715H88.0781V34.3008Z" fill="#6E0012"/>
<path d="M92.4132 35.4189V38.772H92.1141L92.0695 38.18C91.8365 38.5713 91.3821 38.8283 90.85 38.8283C90.1065 38.8283 89.5859 38.3359 89.5859 37.442V35.4189H89.9411V37.3641C89.9411 38.1236 90.3409 38.515 90.9392 38.515C91.5374 38.515 92.0594 38.0009 92.0594 37.3857V35.4189H92.4146H92.4132Z" fill="#6E0012"/>
<path d="M94.221 35.7422V37.9559C94.221 38.3357 94.3763 38.5032 94.7531 38.5032C94.9415 38.5032 95.1083 38.4801 95.3413 38.4137V38.7487C95.1198 38.805 94.9199 38.8267 94.7099 38.8267C94.1663 38.8267 93.8672 38.5249 93.8672 37.9776V35.7422H93.2129V35.4173H93.8672L93.9233 34.5234H94.2224V35.4173H95.3427V35.7422H94.2224H94.221Z" fill="#6E0012"/>
<path d="M96.2832 34.4004H96.7046V34.8249H96.2832V34.4004ZM96.3278 35.417H96.683V38.7701H96.3278V35.417Z" fill="#6E0012"/>
<path d="M97.668 37.0952C97.668 36.0786 98.3223 35.3623 99.2758 35.3623C100.229 35.3623 100.884 36.0554 100.884 37.0952C100.884 38.1349 100.229 38.828 99.2758 38.828C98.3223 38.828 97.668 38.1349 97.668 37.0952ZM100.518 37.0952C100.518 36.2345 100.031 35.6757 99.2758 35.6757C98.5208 35.6757 98.0332 36.2461 98.0332 37.0952C98.0332 37.9443 98.5323 38.5146 99.2758 38.5146C100.019 38.5146 100.518 37.9443 100.518 37.0952Z" fill="#6E0012"/>
<path d="M104.653 36.7486V38.7717H104.298V36.8266C104.298 36.067 103.898 35.6757 103.3 35.6757C102.701 35.6757 102.179 36.1897 102.179 36.8049V38.7717H101.824V35.4186H102.123L102.168 36.0107C102.401 35.6193 102.855 35.3623 103.387 35.3623C104.131 35.3623 104.651 35.8547 104.651 36.7486H104.653Z" fill="#6E0012"/>
<path d="M105.396 38.2788L105.641 38.0333C105.907 38.3351 106.284 38.5026 106.705 38.5026C107.26 38.5026 107.614 38.2672 107.614 37.9206C107.614 37.6073 107.381 37.4181 106.682 37.2159C105.828 36.9589 105.562 36.7019 105.562 36.2326C105.562 35.73 106.061 35.3604 106.727 35.3604C107.148 35.3604 107.558 35.5062 107.869 35.7849L107.636 36.065C107.381 35.808 107.037 35.6853 106.715 35.6853C106.238 35.6853 105.906 35.9091 105.906 36.2224C105.906 36.5358 106.072 36.6585 106.804 36.8824C107.647 37.1394 107.958 37.408 107.958 37.8658C107.958 38.4362 107.447 38.8275 106.705 38.8275C106.206 38.8275 105.719 38.6152 105.396 38.2802V38.2788Z" fill="#6E0012"/>
<path d="M56.6888 9.21777C56.6888 5.61199 54.4741 3.6582 51.3103 3.6582H46.707V14.7773H51.3103C54.4741 14.7773 56.6888 12.8235 56.6888 9.21777ZM47.9093 4.80189H51.3103C53.7781 4.80189 55.4865 6.15207 55.4865 9.21777C55.4865 12.2835 53.7781 13.6337 51.3103 13.6337H47.9093V4.80189Z" fill="#6E0012"/>
<path d="M63.0488 5.77051C60.3121 5.77051 58.4297 7.47015 58.4297 10.4088C58.4297 13.3474 60.3121 15.047 63.0488 15.047C65.4216 15.047 66.7663 13.8875 67.3832 12.2196H66.0702C65.5798 13.3315 64.6307 13.9828 63.0488 13.9828C61.0873 13.9828 59.8376 12.9185 59.6794 10.9012H67.6205C67.6363 10.7582 67.6679 10.5676 67.6679 10.4088C67.6679 7.48603 65.8171 5.77051 63.0488 5.77051ZM59.6952 9.88459C59.8692 7.89903 61.1347 6.83477 63.0646 6.83477C64.9945 6.83477 66.2284 7.89903 66.4024 9.88459H59.6952Z" fill="#6E0012"/>
<path d="M72.5863 13.5861L69.4067 6.04102H68.0938L71.8112 14.7775H73.3614L77.0789 6.04102H75.7501L72.5863 13.5861Z" fill="#6E0012"/>
<path d="M52.1577 19.5656C54.1667 19.5656 55.7328 20.6139 56.0017 22.663H57.2356C56.9192 19.9944 54.8469 18.4219 52.1577 18.4219C48.9939 18.4219 46.7793 20.6457 46.7793 24.2515C46.7793 27.8573 48.9307 30.0811 52.0944 30.0811C54.0876 30.0811 55.5113 29.2233 56.2074 27.5078V29.811H57.2356V24.315H52.1577V25.3475H55.9859C55.6537 27.7937 54.3566 28.9374 52.0944 28.9374C49.6425 28.9374 47.9815 27.3172 47.9815 24.2515C47.9815 21.1858 49.69 19.5656 52.1577 19.5656Z" fill="#6E0012"/>
<path d="M66.5519 21.0752H59.7023V22.2824C62.0435 22.2824 66.188 22.1395 66.188 22.1395V24.3792H61.9169C60.0503 24.3792 58.9746 25.4434 58.9746 27.0795C58.9746 29.1127 60.0661 30.0817 62.4073 30.0817C64.3214 30.0817 65.5236 29.3669 66.188 28.7315V29.8117H67.4061V21.9488C67.4061 21.3611 67.1372 21.0752 66.5519 21.0752ZM66.188 27.4925C65.6502 28.1914 64.4005 29.0015 62.4706 29.0015C60.7938 29.0015 60.2085 28.4297 60.2085 27.1272C60.2085 26.047 60.8096 25.4434 62.0435 25.4434H66.188V27.4925Z" fill="#6E0012"/>
<path d="M73.7028 20.8047C72.4214 20.8047 71.5039 21.583 70.9503 22.3137V21.0747H69.748V29.8112H70.9503V23.6162C71.5356 22.6632 72.3265 21.9166 73.4971 21.9166C74.8576 21.9166 75.1107 22.552 75.1107 24.2675L76.3287 24.2834C76.3287 22.0913 75.7276 20.8047 73.7028 20.8047Z" fill="#6E0012"/>
<path d="M92.8105 20.8047C90.0739 20.8047 88.1914 22.5043 88.1914 25.443C88.1914 28.3816 90.0739 30.0812 92.8105 30.0812C95.1834 30.0812 96.528 28.9217 97.1449 27.2538H95.8319C95.3416 28.3657 94.3924 29.017 92.8105 29.017C90.849 29.017 89.5993 27.9527 89.4411 25.9354H97.3822C97.398 25.7924 97.4296 25.6018 97.4296 25.443C97.4296 22.5202 95.5788 20.8047 92.8105 20.8047ZM89.4569 24.9188C89.6309 22.9332 90.8964 21.8689 92.8263 21.8689C94.7563 21.8689 95.9901 22.9332 96.1641 24.9188H89.4569Z" fill="#6E0012"/>
<path d="M104.185 20.8047C102.46 20.8047 101.242 21.583 100.53 22.3137V21.0747H99.3281V29.8112H100.53V23.6162C101.226 22.7108 102.413 21.9166 104.026 21.9166C105.893 21.9166 106.336 22.4884 106.336 24.3469V29.8112H107.538V24.3628C107.538 21.9007 106.684 20.8047 104.185 20.8047Z" fill="#6E0012"/>
<path d="M86.2868 14.7775V6.91466C86.2868 6.32694 86.0178 6.04102 85.4325 6.04102H78.5829V7.24824C80.9241 7.24824 85.0687 7.10528 85.0687 7.10528V9.34499H80.7976C78.931 9.34499 77.8553 10.4092 77.8553 12.0453C77.8553 14.0786 78.9468 15.0475 81.288 15.0475C83.2021 15.0475 84.4043 14.3327 85.0687 13.6973V14.7775H85.0773V17.8981H85.0759V22.2822C84.3166 21.4244 83.2409 20.8049 81.6906 20.8049C78.9698 20.8049 77.4512 22.5046 77.4512 25.4432C77.4512 28.3818 78.9698 30.0814 81.6906 30.0814C83.2409 30.0814 84.3166 29.462 85.0759 28.6042V29.8114H86.2939V17.8981H86.2868V14.7775ZM85.0687 12.4583C84.5308 13.1573 83.2812 13.9674 81.3513 13.9674C79.6744 13.9674 79.0891 13.3955 79.0891 12.093C79.0891 11.0129 79.6903 10.4092 80.9241 10.4092H85.0687V12.4583ZM85.0759 27.397C84.364 28.35 83.4149 28.9854 81.8488 28.9854C79.7607 28.9854 78.6692 27.7623 78.6692 25.4432C78.6692 23.124 79.7607 21.9009 81.8488 21.9009C83.4149 21.9009 84.364 22.5363 85.0759 23.4894V27.397Z" fill="#6E0012"/>
</g>
<defs>
<clipPath id="clip0_138_114">
<rect width="108" height="40" fill="white"/>
</clipPath>
</defs>
</svg>
