<svg width="289" height="107" viewBox="0 0 289 107" fill="none" xmlns="http://www.w3.org/2000/svg">
<g clip-path="url(#clip0_68_2530)">
<path d="M51.4938 103.817C50.2508 103.817 49.0809 103.33 48.2036 102.449L1.68648 55.7557C0.809092 54.875 0.324219 53.7007 0.324219 52.453C0.324219 51.2053 0.809092 50.031 1.68648 49.1503L50.574 0.0732422H51.9363L52.4096 0.548369V1.91581L3.52207 50.9929C3.13341 51.383 2.91791 51.9006 2.91791 52.453C2.91791 53.0054 3.13341 53.523 3.52207 53.9132L50.0391 100.607C50.4278 100.997 50.9435 101.213 51.4938 101.213C52.0441 101.213 52.5597 100.997 52.9484 100.607L99.4655 53.9132C100.27 53.1058 100.266 51.7963 99.4655 50.989L61.4914 12.8746C61.1027 12.4845 60.5871 12.272 60.0368 12.272C59.4865 12.272 58.9708 12.4883 58.5822 12.8746L20.6081 50.9929C19.8077 51.8002 19.8038 53.1097 20.6081 53.917L50.0353 83.456C50.8396 84.2633 52.1441 84.2633 52.9484 83.456L82.3756 53.917C82.4218 53.8707 82.4641 53.8243 82.5026 53.778C82.5141 53.7625 82.5257 53.7471 82.5372 53.7316C82.5719 53.6891 82.6065 53.6428 82.6373 53.5926L82.6604 53.5578C83.0875 52.8972 83.0875 52.0127 82.6411 51.3251V51.3174C82.6026 51.271 82.568 51.2208 82.5334 51.1783L82.4949 51.1242C82.4756 51.101 82.4256 51.047 82.3756 50.9967L61.4914 30.0332C61.1027 29.6431 60.5871 29.4268 60.0368 29.4268C59.4865 29.4268 58.9708 29.6431 58.5822 30.0332L37.698 50.9967C36.8975 51.8041 36.8975 53.1136 37.698 53.9209L50.0391 66.309C50.4278 66.6991 50.9435 66.9115 51.4938 66.9115C52.0441 66.9115 52.5636 66.6991 52.9484 66.309L65.2896 53.9209C66.09 53.1136 66.09 51.8041 65.2896 50.9967L61.4914 47.1841C61.1027 46.794 60.5871 46.5777 60.0368 46.5777C59.4865 46.5777 58.9708 46.794 58.5822 47.1841L52.4096 53.3762H51.0474L50.574 52.9011V51.5337L56.7466 45.3377C58.5591 43.5183 61.5145 43.5145 63.327 45.3377L67.1252 49.1503C68.0026 50.031 68.4874 51.2053 68.4874 52.453C68.4874 53.7007 68.0026 54.875 67.1252 55.7557L54.784 68.1438C53.9066 69.0245 52.7367 69.5112 51.4938 69.5112C50.2508 69.5112 49.0809 69.0245 48.2036 68.1438L35.8624 55.7557C35.7469 55.6399 35.643 55.524 35.543 55.4042C34.8695 54.5737 34.5001 53.5269 34.5001 52.453C34.5001 51.2053 34.985 50.031 35.8624 49.1503L56.7466 28.1868C57.624 27.3061 58.7938 26.8194 60.0368 26.8194C61.2797 26.8194 62.4496 27.3061 63.327 28.1868L84.2112 49.1503C85.0886 50.031 85.5734 51.2053 85.5734 52.453C85.5734 53.5269 85.204 54.5737 84.5306 55.4042C84.4305 55.5278 84.3228 55.6437 84.2112 55.7596L54.784 85.2986C53.9066 86.1793 52.7367 86.666 51.4938 86.666C50.2508 86.666 49.0809 86.1793 48.2036 85.2986L18.7725 55.7557C17.8951 54.875 17.4102 53.7007 17.4102 52.453C17.4102 51.2053 17.8951 50.031 18.7725 49.1503L56.7466 11.0321C58.5629 9.2088 61.5145 9.21266 63.327 11.0321L101.301 49.1503C101.413 49.2623 101.517 49.3782 101.617 49.5018L101.674 49.5752C101.744 49.6641 101.824 49.7684 101.898 49.8804L101.913 49.9074C102.402 50.653 102.667 51.5375 102.667 52.453C102.667 53.3685 102.405 54.2492 101.909 55.0102L101.886 55.045C101.828 55.1338 101.751 55.2381 101.67 55.3424L101.624 55.4004C101.52 55.5278 101.417 55.6437 101.305 55.7557L54.7878 102.449C53.9104 103.33 52.7406 103.817 51.4976 103.817H51.4938Z" fill="#6E0012"/>
<path d="M132.688 102.785V103.712H125.18V92.3477H126.157V102.785H132.684H132.688Z" fill="#6E0012"/>
<path d="M141.704 102.905V103.712C141.673 103.743 141.438 103.774 141.346 103.774C140.338 103.774 139.922 103.326 139.891 102.217C139.268 103.175 137.994 103.863 136.539 103.863C134.819 103.863 133.719 102.905 133.719 101.41C133.719 99.2852 135.708 98.9298 137.398 98.5705C138.702 98.3001 139.803 98.1225 139.803 97.1954C139.803 96.1486 138.883 95.4301 137.517 95.4301C136.332 95.4301 135.35 95.94 134.608 96.925L133.896 96.2683C134.785 95.1906 136.093 94.5957 137.544 94.5957C139.533 94.5957 140.749 95.6734 140.749 97.4658V102.221C140.749 102.731 140.926 102.908 141.373 102.908H141.7L141.704 102.905ZM139.864 100.185V98.5396C139.299 98.9877 138.41 99.1963 137.49 99.347C136.097 99.6174 134.7 99.8839 134.7 101.41C134.7 102.395 135.381 102.993 136.57 102.993C138.41 102.993 139.864 101.769 139.864 100.181V100.185Z" fill="#6E0012"/>
<path d="M151.556 98.3001V103.712H150.605V98.5087C150.605 96.4768 149.535 95.43 147.935 95.43C146.334 95.43 144.937 96.8052 144.937 98.4507V103.712H143.986V94.7424H144.787L144.906 96.3262C145.529 95.2794 146.745 94.5918 148.169 94.5918C150.159 94.5918 151.552 95.909 151.552 98.3001H151.556Z" fill="#6E0012"/>
<path d="M162.115 91.7529V103.712H161.314L161.195 102.098C160.483 103.202 159.356 103.863 157.989 103.863C155.584 103.863 153.926 101.951 153.926 99.2275C153.926 96.5042 155.588 94.5921 157.989 94.5921C159.356 94.5921 160.452 95.2217 161.164 96.2377V91.7529H162.115ZM161.253 99.2275C161.253 96.9561 160.006 95.4303 158.078 95.4303C156.15 95.4303 154.903 96.9561 154.903 99.2275C154.903 101.499 156.181 103.025 158.078 103.025C159.975 103.025 161.253 101.499 161.253 99.2275Z" fill="#6E0012"/>
<path d="M164.25 102.395L164.904 101.738C165.616 102.545 166.624 102.993 167.752 102.993C169.237 102.993 170.184 102.364 170.184 101.437C170.184 100.598 169.561 100.092 167.69 99.5516C165.404 98.864 164.693 98.1764 164.693 96.921C164.693 95.5768 166.028 94.5879 167.81 94.5879C168.937 94.5879 170.034 94.978 170.865 95.7236L170.242 96.4729C169.561 95.7854 168.641 95.457 167.779 95.457C166.501 95.457 165.612 96.0558 165.612 96.894C165.612 97.7322 166.059 98.0606 168.017 98.6593C170.272 99.3469 171.104 100.065 171.104 101.29C171.104 102.816 169.738 103.863 167.752 103.863C166.417 103.863 165.112 103.295 164.25 102.399V102.395Z" fill="#6E0012"/>
<path d="M172.381 99.2272C172.381 96.5348 174.163 94.5918 176.652 94.5918C178.58 94.5918 179.973 95.6386 180.481 97.3112L179.592 97.6087C179.177 96.3223 178.107 95.4262 176.656 95.4262C174.728 95.4262 173.362 96.979 173.362 99.2233C173.362 101.468 174.728 103.02 176.656 103.02C178.08 103.02 179.208 102.124 179.623 100.838L180.485 101.135C179.981 102.808 178.557 103.855 176.656 103.855C174.136 103.855 172.385 101.943 172.385 99.2194L172.381 99.2272Z" fill="#6E0012"/>
<path d="M189.737 102.905V103.712C189.706 103.743 189.471 103.774 189.379 103.774C188.371 103.774 187.955 103.326 187.924 102.217C187.301 103.175 186.027 103.863 184.573 103.863C182.853 103.863 181.752 102.905 181.752 101.41C181.752 99.2852 183.741 98.9298 185.431 98.5705C186.735 98.3001 187.836 98.1225 187.836 97.1954C187.836 96.1486 186.916 95.4301 185.55 95.4301C184.365 95.4301 183.384 95.94 182.641 96.925L181.929 96.2683C182.818 95.1906 184.126 94.5957 185.577 94.5957C187.567 94.5957 188.783 95.6734 188.783 97.4658V102.221C188.783 102.731 188.96 102.908 189.406 102.908H189.733L189.737 102.905ZM187.898 100.185V98.5396C187.332 98.9877 186.443 99.1963 185.523 99.347C184.13 99.6174 182.733 99.8839 182.733 101.41C182.733 102.395 183.414 102.993 184.603 102.993C186.443 102.993 187.898 101.769 187.898 100.181V100.185Z" fill="#6E0012"/>
<path d="M200.212 99.2272C200.212 101.947 198.55 103.863 196.149 103.863C194.783 103.863 193.686 103.237 192.974 102.217V106.702H192.023V94.7424H192.824L192.943 96.3571C193.655 95.2523 194.783 94.5918 196.149 94.5918C198.554 94.5918 200.212 96.5039 200.212 99.2272ZM199.235 99.2272C199.235 96.9558 197.957 95.43 196.06 95.43C194.163 95.43 192.885 96.9558 192.885 99.2272C192.885 101.499 194.132 103.024 196.06 103.024C197.988 103.024 199.235 101.499 199.235 99.2272Z" fill="#6E0012"/>
<path d="M206.5 102.993C207.716 102.993 208.844 102.456 209.467 101.618L210.121 102.217C209.467 103.024 208.132 103.863 206.5 103.863C203.622 103.863 201.99 101.889 201.99 99.2272C201.99 96.5657 203.83 94.5918 206.262 94.5918C208.694 94.5918 210.356 96.415 210.356 99.2272V99.5864H202.968C203.114 101.711 204.422 102.997 206.496 102.997L206.5 102.993ZM202.998 98.7752H209.406C209.256 96.7125 208.07 95.4262 206.262 95.4262C204.453 95.4262 203.145 96.7434 202.998 98.7752Z" fill="#6E0012"/>
<path d="M216.436 102.395L217.09 101.738C217.802 102.545 218.81 102.993 219.937 102.993C221.423 102.993 222.369 102.364 222.369 101.437C222.369 100.598 221.746 100.092 219.876 99.5516C217.59 98.864 216.878 98.1764 216.878 96.921C216.878 95.5768 218.213 94.5879 219.995 94.5879C221.123 94.5879 222.219 94.978 223.051 95.7236L222.427 96.4729C221.746 95.7854 220.826 95.457 219.964 95.457C218.687 95.457 217.798 96.0558 217.798 96.894C217.798 97.7322 218.244 98.0606 220.203 98.6593C222.458 99.3469 223.289 100.065 223.289 101.29C223.289 102.816 221.923 103.863 219.937 103.863C218.602 103.863 217.298 103.295 216.436 102.399V102.395Z" fill="#6E0012"/>
<path d="M224.566 99.2272C224.566 96.5078 226.317 94.5918 228.869 94.5918C231.42 94.5918 233.171 96.4459 233.171 99.2272C233.171 102.008 231.42 103.863 228.869 103.863C226.317 103.863 224.566 102.008 224.566 99.2272ZM232.194 99.2272C232.194 96.9249 230.889 95.43 228.869 95.43C226.848 95.43 225.544 96.9558 225.544 99.2272C225.544 101.499 226.879 103.024 228.869 103.024C230.858 103.024 232.194 101.499 232.194 99.2272Z" fill="#6E0012"/>
<path d="M235.691 91.7529H236.642V103.712H235.691V91.7529Z" fill="#6E0012"/>
<path d="M247.29 94.7432V103.713H246.49L246.37 102.129C245.747 103.176 244.531 103.863 243.107 103.863C241.118 103.863 239.725 102.546 239.725 100.155V94.7432H240.675V99.9464C240.675 101.978 241.745 103.025 243.346 103.025C244.947 103.025 246.344 101.65 246.344 100.004V94.7432H247.294H247.29Z" fill="#6E0012"/>
<path d="M252.127 95.6079V101.53C252.127 102.545 252.543 102.994 253.551 102.994C254.055 102.994 254.502 102.932 255.125 102.754V103.65C254.532 103.801 253.998 103.859 253.436 103.859C251.981 103.859 251.181 103.052 251.181 101.588V95.6079H249.43V94.7387H251.181L251.331 92.3477H252.131V94.7387H255.129V95.6079H252.131H252.127Z" fill="#6E0012"/>
<path d="M257.646 92.0195H258.774V93.1552H257.646V92.0195ZM257.766 94.739H258.716V103.708H257.766V94.739Z" fill="#6E0012"/>
<path d="M261.355 99.2272C261.355 96.5078 263.106 94.5918 265.658 94.5918C268.209 94.5918 269.96 96.4459 269.96 99.2272C269.96 102.008 268.209 103.863 265.658 103.863C263.106 103.863 261.355 102.008 261.355 99.2272ZM268.983 99.2272C268.983 96.9249 267.678 95.43 265.658 95.43C263.637 95.43 262.333 96.9558 262.333 99.2272C262.333 101.499 263.668 103.024 265.658 103.024C267.647 103.024 268.983 101.499 268.983 99.2272Z" fill="#6E0012"/>
<path d="M280.046 98.3001V103.712H279.095V98.5087C279.095 96.4768 278.026 95.43 276.425 95.43C274.824 95.43 273.427 96.8052 273.427 98.4507V103.712H272.477V94.7424H273.277L273.396 96.3262C274.02 95.2794 275.236 94.5918 276.66 94.5918C278.649 94.5918 280.042 95.909 280.042 98.3001H280.046Z" fill="#6E0012"/>
<path d="M282.033 102.395L282.687 101.738C283.399 102.545 284.408 102.993 285.535 102.993C287.02 102.993 287.967 102.364 287.967 101.437C287.967 100.598 287.344 100.092 285.473 99.5516C283.188 98.864 282.476 98.1764 282.476 96.921C282.476 95.5768 283.811 94.5879 285.593 94.5879C286.72 94.5879 287.817 94.978 288.648 95.7236L288.025 96.4729C287.344 95.7854 286.424 95.457 285.562 95.457C284.284 95.457 283.395 96.0558 283.395 96.894C283.395 97.7322 283.842 98.0606 285.801 98.6593C288.056 99.3469 288.887 100.065 288.887 101.29C288.887 102.816 287.521 103.863 285.535 103.863C284.2 103.863 282.895 103.295 282.033 102.399V102.395Z" fill="#6E0012"/>
<path d="M151.697 24.656C151.697 15.0106 145.77 9.78418 137.304 9.78418H124.986V39.5279H137.304C145.77 39.5279 151.697 34.3015 151.697 24.656ZM128.203 12.8435H137.304C143.908 12.8435 148.48 16.4553 148.48 24.656C148.48 32.8568 143.908 36.4685 137.304 36.4685H128.203V12.8435Z" fill="#6E0012"/>
<path d="M168.714 15.4355C161.391 15.4355 156.354 19.9821 156.354 27.8429C156.354 35.7037 161.391 40.2503 168.714 40.2503C175.063 40.2503 178.662 37.1484 180.312 32.6869H176.799C175.487 35.6613 172.947 37.4034 168.714 37.4034C163.465 37.4034 160.121 34.5565 159.698 29.1601H180.947C180.99 28.7777 181.074 28.2678 181.074 27.8429C181.074 20.0246 176.122 15.4355 168.714 15.4355ZM159.74 26.4407C160.206 21.1293 163.592 18.2824 168.756 18.2824C173.921 18.2824 177.222 21.1293 177.688 26.4407H159.74Z" fill="#6E0012"/>
<path d="M194.239 36.3414L185.73 16.1582H182.217L192.164 39.5282H196.313L206.26 16.1582H202.705L194.239 36.3414Z" fill="#6E0012"/>
<path d="M139.572 52.3367C144.948 52.3367 149.139 55.1411 149.858 60.6224H153.16C152.313 53.4839 146.768 49.2773 139.572 49.2773C131.106 49.2773 125.18 55.2261 125.18 64.8715C125.18 74.517 130.937 80.4657 139.403 80.4657C144.736 80.4657 148.546 78.1712 150.409 73.5822V79.7434H153.16V65.0415H139.572V67.8034H149.816C148.927 74.347 145.456 77.4064 139.403 77.4064C132.841 77.4064 128.397 73.0723 128.397 64.8715C128.397 56.6708 132.968 52.3367 139.572 52.3367Z" fill="#6E0012"/>
<path d="M178.091 56.374H159.762V59.6033C166.027 59.6033 177.117 59.2209 177.117 59.2209V65.2121H165.688C160.693 65.2121 157.814 68.059 157.814 72.4356C157.814 77.8745 160.735 80.4664 167 80.4664C172.122 80.4664 175.339 78.5543 177.117 76.8547V79.7441H180.376V58.711C180.376 57.1389 179.657 56.374 178.091 56.374ZM177.117 73.5404C175.678 75.41 172.334 77.577 167.169 77.577C162.682 77.577 161.116 76.0473 161.116 72.5631C161.116 69.6737 162.725 68.059 166.027 68.059H177.117V73.5404Z" fill="#6E0012"/>
<path d="M197.225 55.6514C193.796 55.6514 191.341 57.7334 189.86 59.688V56.3737H186.643V79.7437H189.86V63.1723C191.426 60.6228 193.542 58.6257 196.675 58.6257C200.315 58.6257 200.993 60.3254 200.993 64.9144L204.252 64.9569C204.252 59.0931 202.643 55.6514 197.225 55.6514Z" fill="#6E0012"/>
<path d="M248.357 55.6514C241.033 55.6514 235.996 60.1979 235.996 68.0587C235.996 75.9196 241.033 80.4661 248.357 80.4661C254.706 80.4661 258.304 77.3643 259.955 72.9027H256.442C255.129 75.8771 252.59 77.6192 248.357 77.6192C243.108 77.6192 239.763 74.7723 239.34 69.376H260.59C260.632 68.9935 260.717 68.4836 260.717 68.0587C260.717 60.2404 255.764 55.6514 248.357 55.6514ZM239.383 66.6565C239.848 61.3452 243.235 58.4983 248.399 58.4983C253.563 58.4983 256.865 61.3452 257.331 66.6565H239.383Z" fill="#6E0012"/>
<path d="M278.792 55.6514C274.178 55.6514 270.919 57.7334 269.014 59.688V56.3737H265.797V79.7437H269.014V63.1723C270.876 60.7503 274.051 58.6257 278.369 58.6257C283.364 58.6257 284.549 60.1554 284.549 65.1269V79.7437H287.766V65.1693C287.766 58.5832 285.48 55.6514 278.792 55.6514Z" fill="#6E0012"/>
<path d="M230.897 39.5282V18.4952C230.897 16.923 230.178 16.1582 228.611 16.1582H210.282V19.3875C216.547 19.3875 227.638 19.0051 227.638 19.0051V24.9963H216.209C211.214 24.9963 208.335 27.8432 208.335 32.2198C208.335 37.6586 211.256 40.2506 217.521 40.2506C222.643 40.2506 225.86 38.3385 227.638 36.6389V39.5282H227.661V47.8758H227.657V59.6033C225.625 57.3088 222.747 55.6516 218.598 55.6516C211.318 55.6516 207.254 60.1982 207.254 68.059C207.254 75.9198 211.318 80.4664 218.598 80.4664C222.747 80.4664 225.625 78.8092 227.657 76.5147V79.744H230.916V47.8758H230.897V39.5282ZM227.638 33.3246C226.199 35.1942 222.855 37.3612 217.69 37.3612C213.203 37.3612 211.637 35.8315 211.637 32.3473C211.637 29.4579 213.246 27.8432 216.547 27.8432H227.638V33.3246ZM227.657 73.2854C225.752 75.8349 223.212 77.5345 219.022 77.5345C213.434 77.5345 210.513 74.2627 210.513 68.059C210.513 61.8553 213.434 58.5835 219.022 58.5835C223.212 58.5835 225.752 60.2832 227.657 62.8326V73.2854Z" fill="#6E0012"/>
</g>
<defs>
<clipPath id="clip0_68_2530">
<rect width="289" height="107" fill="white"/>
</clipPath>
</defs>
</svg>
